<?xml version="1.0" standalone="no"?>
<!DOCTYPE svg PUBLIC "-//W3C//DTD SVG 20010904//EN"
 "http://www.w3.org/TR/2001/REC-SVG-20010904/DTD/svg10.dtd">
<svg version="1.0" xmlns="http://www.w3.org/2000/svg"
 width="360.000000pt" height="388.000000pt" viewBox="0 0 360.000000 388.000000"
 preserveAspectRatio="xMidYMid meet">

<g transform="translate(0.000000,388.000000) scale(0.100000,-0.100000)"
fill="#000000" stroke="none">
<path d="M1551 3827 c-75 -65 -97 -105 -92 -168 3 -40 6 -47 10 -29 8 30 60
48 171 59 l75 8 -65 2 c-36 0 -90 -5 -120 -13 -64 -17 -78 -13 -29 8 61 25
155 39 221 31 93 -10 172 -37 176 -59 3 -15 0 -18 -19 -12 -13 3 -42 8 -64 11
-38 5 -37 4 10 -9 28 -8 53 -15 58 -16 4 0 7 -9 7 -19 0 -19 -6 -19 -142 -14
-128 5 -270 -6 -286 -21 -8 -8 -7 -87 1 -118 8 -32 71 -78 106 -78 21 0 23 -3
17 -32 -11 -55 -76 -108 -131 -108 -15 0 -48 -9 -74 -21 -44 -18 -54 -29 -108
-122 -83 -141 -135 -239 -172 -325 -18 -40 -75 -136 -128 -215 -53 -78 -111
-174 -129 -214 -24 -53 -43 -78 -71 -97 -21 -14 -43 -26 -50 -26 -16 0 -53 72
-53 104 0 55 -90 42 -118 -17 -16 -34 -10 -57 16 -57 22 0 69 -91 57 -110 -13
-20 -11 -103 2 -131 13 -28 55 -50 88 -46 12 1 21 -5 23 -17 3 -13 -19 -42
-69 -92 -40 -40 -70 -77 -66 -81 4 -3 40 8 80 26 39 18 78 34 85 34 9 1 143
-237 343 -606 l329 -607 0 -75 c0 -45 -6 -90 -15 -112 -15 -36 -15 -37 17 -69
42 -42 66 -42 159 -3 92 39 178 48 245 25 97 -33 190 -10 169 41 -4 10 -9 52
-10 93 -2 41 -10 105 -18 142 -14 65 -13 74 34 390 79 524 84 577 84 838 -1
274 -11 337 -76 469 l-42 84 21 16 c32 24 43 72 47 198 2 61 11 141 20 178 10
36 15 80 13 96 -3 16 -1 29 2 29 4 0 67 -18 141 -40 74 -21 162 -46 197 -54
l63 -14 57 29 c31 17 77 47 102 66 25 20 50 41 57 45 6 5 -13 -67 -43 -159
-30 -92 -59 -185 -66 -205 -7 -26 -17 -38 -30 -38 -32 0 -22 -45 19 -85 96
-93 312 -85 397 15 28 34 35 70 12 70 -9 0 -37 83 -86 255 -40 141 -71 258
-68 260 3 3 113 4 245 3 l239 -3 -67 -205 c-97 -299 -97 -297 -118 -303 -51
-13 29 -107 111 -132 110 -32 230 -11 298 54 44 41 54 81 20 81 -15 0 -23 14
-39 68 -34 113 -121 428 -121 435 0 4 7 7 16 7 9 0 14 7 12 17 -2 13 -25 22
-93 35 -195 39 -237 50 -224 60 15 9 -24 49 -104 108 -37 28 -38 28 -90 15
-44 -12 -62 -24 -117 -83 -36 -38 -85 -83 -110 -99 -75 -50 -208 -123 -224
-123 -35 0 -250 91 -289 123 -60 49 -72 54 -198 83 -100 23 -119 31 -151 62
-23 21 -38 46 -38 59 0 20 5 23 38 23 50 0 67 19 88 100 15 59 15 66 0 91 -12
21 -14 34 -6 54 25 66 -1 132 -78 197 -30 25 -37 26 -138 25 l-106 0 -47 -40z
m-147 -667 c44 -47 107 -79 187 -96 111 -23 225 -3 349 62 41 21 56 26 40 13
-14 -12 -47 -32 -75 -46 -184 -94 -373 -96 -504 -5 -70 47 -83 68 -57 88 26
19 27 19 60 -16z m2023 -228 c29 -103 61 -217 72 -254 l20 -68 -163 0 -164 0
78 241 c92 282 87 269 97 269 4 0 32 -85 60 -188z m-542 -99 c36 -128 65 -233
65 -235 0 -2 -75 -2 -167 -1 -93 2 -167 6 -166 10 22 82 157 461 170 475 23
25 17 39 98 -249z m-871 106 c-74 -230 -158 -346 -317 -440 l-39 -22 -80 19
c-85 20 -88 23 -101 92 l-7 34 38 -30 c88 -70 118 -73 202 -24 133 77 255 249
316 446 10 32 20 54 22 48 1 -5 -14 -61 -34 -123z m-632 -241 c20 -83 26 -127
21 -166 -6 -52 -5 -53 26 -65 17 -6 31 -15 31 -19 0 -5 -30 -68 -67 -141 l-67
-132 -4 -230 c-5 -293 25 -588 98 -965 10 -52 17 -96 15 -98 -1 -1 -122 232
-269 518 l-266 521 60 55 c33 31 60 65 60 75 0 17 -7 15 -74 -15 -103 -47
-116 -51 -116 -32 0 9 4 16 9 16 5 0 16 32 25 72 18 77 32 100 134 212 69 76
142 180 142 203 0 23 193 303 209 303 4 0 19 -51 33 -112z m588 -70 c-11 -31
-36 -72 -56 -92 -31 -32 -41 -36 -84 -36 -28 0 -50 2 -50 4 0 2 21 15 48 27
68 34 130 94 144 143 7 22 14 34 16 25 1 -9 -6 -41 -18 -71z m-317 -456 c19
-17 14 -20 111 68 l39 35 -21 -31 c-12 -18 -53 -60 -92 -94 -64 -56 -73 -62
-94 -52 -32 14 -90 85 -133 161 l-34 61 103 -66 c57 -37 111 -74 121 -82z
m333 -234 c-17 -444 -66 -830 -137 -1088 -34 -121 -78 -228 -97 -234 -9 -2
-51 -7 -92 -11 -63 -5 -72 -4 -55 7 89 56 164 156 213 285 79 205 131 542 147
948 7 181 15 275 22 275 3 0 3 -82 -1 -182z m-827 -640 c156 -326 286 -602
288 -613 2 -11 -131 252 -296 584 -166 332 -298 607 -295 612 3 5 9 9 13 9 4
0 135 -267 290 -592z m331 -254 c7 -22 26 -70 43 -107 30 -67 32 -69 61 -62
17 3 51 8 76 12 l45 6 -37 -39 c-21 -22 -54 -48 -74 -59 -34 -18 -37 -18 -49
-2 -29 39 -97 272 -120 412 -35 204 -30 220 10 34 18 -86 38 -174 45 -195z
m494 -16 c-3 -24 -19 -112 -36 -197 -36 -189 -36 -200 -9 -244 30 -49 26 -63
-10 -33 -17 14 -41 26 -54 26 -13 0 -26 4 -29 8 -3 4 11 46 29 93 34 84 73
220 95 332 13 66 23 77 14 15z"/>
<path d="M130 2303 c-37 -58 -50 -102 -50 -171 0 -77 21 -193 34 -189 6 2 15
41 20 86 4 45 10 80 12 78 2 -2 4 -60 5 -128 0 -68 3 -135 6 -148 5 -22 9 -19
35 30 29 54 30 51 6 -28 -6 -23 -9 -45 -5 -49 9 -9 51 41 84 101 23 42 28 61
28 120 -1 39 -6 78 -11 88 -10 17 -13 16 -45 -15 l-35 -33 0 85 c0 82 -26 204
-45 216 -5 3 -22 -16 -39 -43z"/>
<path d="M3254 2288 c-11 -40 -18 -97 -18 -155 l-1 -92 -37 36 c-34 33 -38 35
-45 17 -4 -10 -8 -50 -8 -89 0 -54 5 -80 23 -115 29 -56 79 -116 89 -107 4 4
-3 37 -14 72 -12 36 -19 65 -17 65 3 0 16 -25 30 -56 14 -31 28 -53 32 -50 4
4 7 37 8 74 1 37 3 101 4 142 l3 75 9 -75 c8 -68 20 -101 32 -89 9 8 26 133
26 185 0 28 -6 72 -14 98 -14 47 -62 126 -76 126 -4 0 -16 -28 -26 -62z"/>
<path d="M19 1954 c-35 -92 -17 -200 54 -319 35 -59 42 -66 45 -46 2 13 -4 51
-13 83 -24 85 -11 84 16 -1 13 -39 26 -71 30 -71 11 0 22 86 16 128 -7 56 -45
137 -93 199 l-43 56 -12 -29z"/>
<path d="M3369 1920 c-62 -84 -88 -152 -88 -225 0 -65 13 -111 23 -85 3 8 15
41 27 73 11 32 23 57 25 54 2 -2 -5 -34 -15 -72 -28 -99 -13 -115 32 -34 48
86 64 125 72 180 7 45 -10 155 -25 164 -4 3 -27 -22 -51 -55z"/>
<path d="M256 1780 c-26 -28 -54 -66 -62 -85 -15 -37 -19 -155 -5 -155 5 0 18
23 30 50 12 28 23 50 26 50 4 0 -8 -42 -24 -83 -6 -17 -8 -35 -3 -44 7 -12 17
-4 45 35 21 27 44 66 52 86 22 52 18 196 -5 196 -4 0 -28 -23 -54 -50z"/>
<path d="M3126 1808 c-3 -13 -6 -50 -6 -83 0 -66 18 -114 70 -184 41 -56 55
-39 29 37 -11 30 -18 57 -16 59 2 1 14 -19 27 -47 13 -27 27 -47 32 -44 16 10
8 108 -13 154 -18 41 -94 130 -110 130 -4 0 -9 -10 -13 -22z"/>
<path d="M15 1561 c-8 -39 10 -134 37 -190 28 -58 162 -200 166 -177 2 9 -15
51 -38 93 -22 41 -39 77 -37 79 1 2 27 -33 57 -77 30 -44 59 -84 66 -89 8 -8
14 10 23 65 7 41 15 75 18 75 2 0 2 -33 -2 -74 -5 -46 -3 -81 3 -92 9 -17 13
-14 29 24 l18 42 0 -102 c1 -85 5 -112 24 -154 21 -48 75 -113 85 -103 3 2 -2
33 -9 69 -20 93 -17 95 13 11 39 -109 57 -107 49 5 -8 118 -29 176 -86 234
-25 26 -52 49 -59 51 -9 3 -10 13 -2 39 16 56 12 135 -10 194 -31 81 -43 86
-74 33 -15 -24 -33 -65 -42 -91 l-16 -47 -28 43 c-29 45 -121 137 -157 156
-19 11 -22 9 -28 -17z"/>
<path d="M3364 1548 c-64 -57 -99 -96 -121 -135 -20 -38 -33 -42 -33 -12 0 23
-68 159 -80 159 -4 0 -19 -26 -34 -59 -28 -64 -36 -164 -15 -218 8 -21 7 -29
-2 -32 -31 -10 -99 -86 -119 -134 -30 -67 -42 -241 -17 -232 8 4 25 38 37 76
13 38 24 68 27 66 2 -2 -4 -35 -12 -72 -9 -37 -14 -69 -12 -72 11 -11 67 52
87 99 19 44 24 71 24 154 l0 102 19 -41 c26 -60 38 -32 32 73 -6 98 -1 96 15
-9 l12 -73 23 27 c13 14 42 55 66 91 23 35 43 64 46 64 3 0 -14 -34 -36 -75
-23 -41 -41 -84 -41 -97 1 -19 11 -12 68 47 96 100 125 159 130 262 3 51 1 83
-5 83 -6 0 -32 -19 -59 -42z"/>
<path d="M73 1182 c7 -63 44 -135 93 -186 34 -35 163 -126 179 -126 17 0 -13
51 -61 102 -30 31 -54 59 -54 63 0 4 30 -21 67 -54 38 -34 69 -57 71 -51 6 17
-20 83 -49 126 -37 54 -86 93 -178 139 l-74 37 6 -50z"/>
<path d="M3302 1193 c-41 -20 -95 -56 -122 -80 -51 -46 -100 -130 -100 -172 0
-25 0 -25 38 10 20 19 53 48 72 64 40 34 29 19 -48 -67 -60 -68 -57 -87 10
-51 75 40 163 126 193 186 21 45 45 147 34 147 -2 0 -37 -17 -77 -37z"/>
<path d="M583 993 c-13 -51 -7 -215 10 -260 20 -52 16 -54 -13 -8 -28 46 -98
94 -171 116 -61 19 -209 37 -209 25 0 -12 32 -70 58 -104 32 -41 98 -88 154
-108 50 -18 179 -46 185 -41 13 13 -19 43 -79 73 -39 19 -68 37 -66 40 3 2 37
-9 77 -26 39 -17 75 -29 80 -26 4 3 15 -8 24 -24 21 -35 77 -78 77 -58 -1 7
-9 49 -20 93 -10 44 -17 82 -15 84 3 2 7 -2 9 -10 2 -8 12 -39 21 -69 19 -61
40 -100 55 -100 13 0 13 98 0 173 -17 105 -81 210 -150 247 -17 9 -21 7 -27
-17z"/>
<path d="M2787 967 c-72 -70 -97 -137 -104 -274 -4 -67 -2 -103 4 -103 17 0
29 22 53 95 29 89 43 106 25 29 -8 -32 -17 -77 -20 -99 l-6 -40 48 51 c64 67
83 125 83 253 0 100 -6 141 -21 141 -4 0 -32 -24 -62 -53z"/>
<path d="M3118 860 c-124 -21 -214 -74 -256 -149 -13 -22 -20 -41 -17 -41 3 0
38 14 77 30 39 17 73 29 75 27 2 -3 -28 -21 -66 -41 -58 -30 -90 -60 -79 -72
6 -5 142 24 186 40 70 25 131 74 173 139 21 33 39 64 39 69 0 10 -67 9 -132
-2z"/>
<path d="M780 727 c0 -1 9 -35 20 -76 45 -162 115 -251 222 -282 15 -4 28 -5
28 -3 0 3 -23 39 -51 80 -28 42 -49 77 -47 79 2 3 28 -27 58 -65 32 -42 62
-70 73 -70 23 0 19 17 -33 125 -46 94 -96 150 -165 180 -47 21 -105 39 -105
32z"/>
<path d="M2625 720 c-100 -22 -169 -84 -225 -203 -21 -45 -41 -92 -45 -104
-12 -43 23 -25 76 39 84 103 87 94 7 -23 -21 -31 -38 -59 -38 -62 0 -8 50 7
87 26 63 33 125 128 158 240 22 78 18 95 -20 87z"/>
<path d="M447 551 c-16 -6 -15 -10 11 -47 42 -58 98 -101 162 -125 53 -20 245
-47 256 -36 17 17 -23 45 -100 71 -48 16 -85 31 -82 33 2 2 42 -6 90 -18 48
-12 90 -18 94 -15 4 4 -16 29 -44 56 -67 64 -149 90 -278 89 -50 0 -99 -4
-109 -8z"/>
<path d="M2737 540 c-68 -21 -124 -58 -156 -100 -19 -27 -20 -30 -4 -30 10 0
52 9 93 20 107 28 108 24 6 -15 -81 -31 -105 -46 -106 -67 0 -11 30 -10 128 2
144 18 227 62 294 154 26 37 27 41 11 47 -38 15 -207 8 -266 -11z"/>
<path d="M1086 524 c3 -16 20 -62 36 -102 35 -85 109 -169 157 -178 34 -7 32
-24 -2 -24 -24 0 -150 -58 -182 -84 -20 -16 -20 -16 10 -41 77 -64 193 -70
327 -18 l77 30 3 -41 c3 -36 6 -41 31 -44 l27 -3 0 131 0 131 -27 -3 c-27 -3
-28 -5 -33 -73 l-5 -70 -92 -2 c-51 -1 -93 0 -93 2 0 2 33 8 73 15 39 6 81 15
92 19 18 7 17 10 -15 30 -19 11 -56 24 -82 27 -50 7 -53 10 -124 112 -20 28
-13 24 29 -20 31 -32 63 -58 72 -58 19 0 20 -1 -10 67 -55 124 -138 198 -243
219 -32 7 -33 6 -26 -22z"/>
<path d="M2310 541 c-88 -27 -153 -87 -203 -186 -55 -112 -40 -127 44 -42 40
40 46 44 27 17 -68 -97 -71 -100 -102 -100 -33 0 -109 -31 -120 -48 -4 -6 17
-15 51 -22 128 -24 131 -27 26 -26 l-103 1 0 62 c0 77 -6 93 -36 93 l-25 0 3
-132 c3 -121 5 -133 22 -136 24 -5 36 14 36 57 0 28 3 32 18 25 9 -4 53 -20
97 -35 111 -40 173 -39 256 4 35 17 65 37 66 42 5 15 -97 74 -161 94 -69 21
-75 27 -36 34 65 13 153 135 185 256 15 56 12 59 -45 42z"/>
<path d="M850 321 c-30 -10 -68 -24 -83 -33 l-29 -15 47 -41 c56 -49 119 -72
198 -72 58 0 174 24 190 39 16 16 -23 31 -104 40 l-84 8 65 3 c36 1 78 5 95 9
l30 6 -35 27 c-19 15 -48 31 -63 37 -43 17 -165 12 -227 -8z"/>
<path d="M2355 322 c-22 -11 -48 -28 -58 -39 -17 -20 -17 -20 20 -27 21 -3 63
-6 93 -7 49 -2 47 -3 -29 -10 -135 -15 -144 -38 -25 -64 137 -31 230 -12 316
64 l42 37 -70 29 c-92 38 -228 46 -289 17z"/>
<path d="M1776 264 c-8 -20 -8 -218 0 -238 3 -9 17 -16 30 -16 l24 0 0 135 0
135 -24 0 c-13 0 -27 -7 -30 -16z"/>
<path d="M1606 254 c-8 -20 -8 -218 0 -238 8 -21 50 -21 58 0 8 20 8 218 0
238 -8 21 -50 21 -58 0z"/>
<path d="M1691 251 c-12 -21 -15 -191 -5 -229 5 -18 13 -22 33 -20 l26 3 0
130 c0 126 -1 130 -22 133 -14 2 -26 -4 -32 -17z"/>
</g>
</svg>
