<svg xmlns="http://www.w3.org/2000/svg" viewBox="0 0 55 55"><path d="M35.2 39.2c-.2-.1-.4-.2-.5-.4-.2-.2-.2-.5-.2-.8v-2.6c.2-.2.3-.4.4-.6.2-.3.4-.5.7-.8 1.2-1.4 3.1-3.6 4.1-7.5v-3.6c0-1-.3-1.8-.9-2.6V16c.1-.8.1-3.7-2.1-6.2-1.8-1.9-4.7-3-8.4-3.2H27c-3.7.2-6.6 1.3-8.4 3.2-2.2 2.5-2.2 5.4-2.1 6.2v4.3c-.6.8-.9 1.6-.9 2.6v3.6c1 3.9 2.9 6.1 4.1 7.5.3.3.5.5.7.8.1.2.2.4.4.6V38c0 .3 0 .6-.2.8-.1.2-.3.3-.5.4L11 43.5l.2.6c.9 2.8 8.7 4.2 15.8 4.3h1.2c7.1-.1 14.9-1.5 15.8-4.3l.2-.6-9-4.3zm-14.5 1.3c.3-.1.7-.4 1.1-.9.3-.5.5-1.1.5-1.7v-3.2l-.3-.3c-.1-.1-.3-.4-.5-.6-.3-.3-.5-.6-.8-.9-1.2-1.4-2.9-3.3-3.8-6.8v-3.3c0-.7.2-1.3.7-1.8l.2-.2v-5c-.1-.4-.2-2.9 1.7-5 1.6-1.7 4.4-2.7 8-2.7h.2c3.6 0 6.4 1 8 2.7 1.9 2.1 1.8 4.6 1.7 5v5l.2.2c.5.5.7 1.1.7 1.8v3.3c-.9 3.5-2.6 5.4-3.8 6.8-.3.3-.5.6-.8.9-.2.2-.4.5-.5.6l-.2.3v3.2c0 .6.2 1.2.5 1.7.4.5.8.8 1.1.9l.6.3c-1.6 2.8-4.4 4.4-7.5 4.3-3.2.1-6-1.5-7.5-4.3l.5-.3zm7 6.4c-8 0-13.2-1.5-14.9-2.7l5.8-2.7c1.9 3.3 5.1 5.2 8.8 5.2h.4c3.7 0 6.9-1.9 8.8-5.2l5.8 2.7c-1.6 1.2-6.8 2.7-14.7 2.7z" fill="#195079"/></svg>